<?xml version="1.0" encoding="UTF-8"?>
<!-- Generator: Adobe Illustrator 26.5.0, SVG Export Plug-In . SVG Version: 6.00 Build 0)  -->
<svg version="1.1" id="Layer_1" xmlns="http://www.w3.org/2000/svg" xmlns:xlink="http://www.w3.org/1999/xlink" x="0px" y="0px" viewBox="0 0 340 340" style="enable-background:new 0 0 340 340;" xml:space="preserve">
<desc>PHP logo</desc>
<style type="text/css">
	.st0{fill:url(#SVGID_1_);}
	.st1{fill:none;}
	.st2{fill:#FFFFFF;}
</style>
<g>
	<g>
		
			<linearGradient id="SVGID_1_" gradientUnits="userSpaceOnUse" x1="6.2296" y1="341.8477" x2="326.6224" y2="9.5655" gradientTransform="matrix(1 0 0 -1 0 342)">
			<stop offset="0" style="stop-color:#7079A4"/>
			<stop offset="0.8212" style="stop-color:#566294"/>
			<stop offset="1" style="stop-color:#505C90"/>
		</linearGradient>
		<path class="st0" d="M28.3,0h283.3C327.2,0,340,12.8,340,28.3v283.3c0,15.6-12.8,28.3-28.3,28.3H28.3C12.8,340,0,327.2,0,311.7    V28.3C0,12.8,12.8,0,28.3,0z"/>
	</g>
</g>
<g>
	<g id="g3478_00000045618853953712160330000014415926854745354905_">
		<g id="g3484_00000102536239537787895890000014705163542616591493_" transform="translate(161.7344,145.3066)">
			<path id="path3486_00000106863686654045995310000010447562735361882538_" class="st1" d="M-76.4,44.3c8.5,0,15-1.7,19-4.8     c4-3.1,6.8-8.5,8.2-15.9c1.4-7.1,0.9-11.9-1.4-14.4c-2.6-2.6-7.6-4-15.6-4h-13.6l-7.6,39.1C-87.4,44.3-76.4,44.3-76.4,44.3z      M-121.1,92.4c-0.6,0-1.1-0.3-1.7-0.8c-0.3-0.6-0.6-1.1-0.6-1.7l20.1-103.7c0.3-1.1,1.1-1.7,2-1.7h43.4     c13.6,0,23.8,3.7,30.3,11.1c6.5,7.4,8.5,17.6,5.9,30.6c-1.1,5.4-2.8,10.2-5.1,14.4c-2.6,4.2-5.7,8.5-9.6,11.9     c-4.8,4.5-9.9,7.6-15.9,9.4c-5.7,2-13,2.8-21.8,2.8h-17.6l-5.1,25.8c-0.3,1.1-1.1,1.7-2,1.7h-22.4V92.4z"/>
		</g>
		<g id="g3488_00000140710588612586679910000009409646999822894492_" transform="translate(159.2236,197.3071)">
			<path id="path3490_00000135674122554588529570000002089821770465258676_" class="st2" d="M-75.6-44.9h11.9c9.6,0,12.8,2,13.9,3.4     c2,2,2.3,6.5,1.1,12.8c-1.4,6.8-4,11.9-7.4,14.7c-3.7,2.8-9.6,4.2-17.8,4.2h-8.5L-75.6-44.9z M-55.2-69.5h-43.4     c-2,0-3.7,1.4-4.2,3.4l-20.1,103.7c-0.3,1.1,0,2.6,0.9,3.4c0.9,0.9,2,1.4,3.4,1.4H-96c2,0,3.7-1.4,4.2-3.4l4.8-24.1H-71     c9.1,0,16.4-0.9,22.4-2.8S-37,6.7-31.9,2.2c4-3.7,7.4-7.9,9.9-12.5s4.2-9.6,5.4-15c2.6-13.6,0.6-24.4-6.5-32.3     C-30.2-65.5-40.7-69.5-55.2-69.5 M-87.5-5.8h13.6c9.1,0,15.9-1.7,20.4-5.1s7.4-9.1,9.1-17.3c1.4-7.6,0.9-13-2-16.4     c-2.8-3.1-8.5-4.8-17.3-4.8h-15.6L-87.5-5.8 M-55.2-65.3c13,0,22.7,3.4,28.6,10.2c5.9,6.8,7.6,16.4,5.4,28.6     c-0.9,5.1-2.6,9.6-5.1,13.9c-2.3,4.2-5.4,7.9-9.1,11.6c-4.5,4.2-9.6,7.1-15,9.1c-5.4,1.7-12.5,2.6-21,2.6h-19.3L-96,38.2h-22.7     l20.1-103.7h43.3"/>
		</g>
		<g id="g3492_00000120539405034426425540000009252403327781224346_" transform="translate(311.583,116.3066)">
			<path id="path3494_00000058548085042312926340000000509859699520086695_" class="st1" d="M-119.5,93.9c-0.6,0-1.1-0.3-1.7-0.8     c-0.3-0.6-0.6-1.1-0.6-1.7l8.8-45.9c0.9-4.2,0.6-7.4-0.6-8.8c-0.9-0.8-3.1-2.3-9.6-2.3h-16.1L-150.7,92c-0.3,1.1-1.1,1.7-2,1.7     h-22.4c-0.6,0-1.1-0.3-1.7-0.8c-0.3-0.6-0.6-1.1-0.6-1.7l20.1-103.7c0.3-1.1,1.1-1.7,2-1.7h22.4c0.6,0,1.1,0.3,1.7,0.9     c0.3,0.6,0.6,1.1,0.6,1.7l-4.8,24.9h17.3c13.3,0,22.1,2.3,27.5,7.1s7.1,12.8,4.8,23.2l-9.4,48.2c-0.3,1.1-1.1,1.7-2,1.7h-22.4     V93.9z"/>
		</g>
		<g id="g3496_00000071548041443648668480000007994590007747300282_" transform="translate(293.6611,271.0571)">
			<path id="path3498_00000067222428198158445160000009342778263390710201_" class="st2" d="M-114.4-170.9h-22.4     c-2,0-3.7,1.4-4.2,3.4l-20.1,103.7c-0.3,1.1,0,2.5,0.9,3.4c0.9,0.9,2,1.4,3.4,1.4h22.4c2,0,3.7-1.4,4.2-3.4l10.8-55.8h14.5     c6.5,0,7.9,1.4,8.2,1.4c0.3,0.6,0.9,2.5,0,7.1l-8.8,45.9c-0.3,1.1,0,2.5,0.9,3.4c0.9,0.9,2,1.4,3.4,1.4h22.7c2,0,3.7-1.4,4.2-3.4     l9.4-48.2c2.3-11.3,0.3-19.8-5.7-25.2c-5.7-5.1-15-7.6-28.9-7.6h-14.7l4.2-22.4c0.3-1.1,0-2.5-0.9-3.4     C-111.9-170.3-113.3-170.9-114.4-170.9 M-114.4-166.6l-5.4,27.5h19.8c12.5,0,21.2,2.3,26.1,6.5s6.2,11.6,4.2,21.2L-79-63.2h-22.7     l8.8-45.9c1.1-5.1,0.6-8.8-1.1-10.8c-1.7-2-5.4-2.8-11.3-2.8h-17.9l-11.6,59.5h-22.4l20.1-103.7h22.7"/>
		</g>
		<g id="g3500_00000125574055794697581340000002891825569284937120_" transform="translate(409.5498,145.3066)">
			<path id="path3502_00000142863300521008172280000013888060089595579532_" class="st1" d="M-147.9,44.3c8.5,0,15-1.7,19-4.8     c4-3.1,6.8-8.5,8.2-15.9c1.4-7.1,0.8-11.9-1.4-14.4c-2.5-2.6-7.7-4-15.6-4h-13.6l-7.7,39.1C-158.9,44.3-147.9,44.3-147.9,44.3z      M-192.7,92.4c-0.6,0-1.1-0.3-1.7-0.8c-0.3-0.6-0.6-1.1-0.6-1.7l20.1-103.7c0.3-1.1,1.1-1.7,2-1.7h43.3     c13.6,0,23.8,3.7,30.3,11.1c6.5,7.4,8.5,17.6,6,30.6c-1.1,5.4-2.8,10.2-5.1,14.4c-2.5,4.2-5.7,8.5-9.6,11.9     c-4.8,4.5-9.9,7.6-15.9,9.4c-5.7,2-13,2.8-21.8,2.8h-17.6l-5.1,25.8c-0.3,1.1-1.1,1.7-2,1.7h-22.4V92.4z"/>
		</g>
		<g id="g3504_00000039823877409264303340000000550544442868727429_" transform="translate(407.0391,197.3071)">
			<path id="path3506_00000114063751408121106430000012893091225608582057_" class="st2" d="M-147.1-44.9h11.9     c9.6,0,12.8,2,13.9,3.4c2,2,2.3,6.5,1.1,12.8c-1.4,6.8-4,11.9-7.4,14.7c-3.7,2.8-9.6,4.2-17.8,4.2h-8.5L-147.1-44.9z      M-126.7-69.5h-43.3c-2,0-3.7,1.4-4.2,3.4l-20.1,103.7c-0.3,1.1,0,2.6,0.8,3.4c0.8,0.9,2,1.4,3.4,1.4h22.7c2,0,3.7-1.4,4.2-3.4     l4.8-24.1h15.9c9.1,0,16.4-0.9,22.4-2.8s11.6-5.4,16.7-9.9c4-3.7,7.4-7.9,9.9-12.5s4.2-9.6,5.4-15c2.5-13.6,0.6-24.4-6.5-32.3     C-101.8-65.5-112.5-69.5-126.7-69.5 M-159-5.8h13.6c9.1,0,15.9-1.7,20.4-5.1c4.5-3.4,7.4-9.1,9.1-17.3c1.4-7.6,0.8-13-2-16.4     c-2.8-3.1-8.5-4.8-17.3-4.8h-15.6L-159-5.8 M-126.7-65.3c13,0,22.7,3.4,28.6,10.2c6,6.8,7.7,16.4,5.4,28.6     c-0.8,5.1-2.5,9.6-5.1,13.9c-2.3,4.2-5.4,7.9-9.1,11.6c-4.5,4.2-9.6,7.1-15,9.1c-5.4,1.7-12.5,2.6-21,2.6h-19.3l-5.4,27.5h-22.7     l20.1-103.7h43.3"/>
		</g>
	</g>
</g>
</svg>