<?xml version="1.0" standalone="no"?>
<!DOCTYPE svg PUBLIC "-//W3C//DTD SVG 20010904//EN"
 "http://www.w3.org/TR/2001/REC-SVG-20010904/DTD/svg10.dtd">
<svg version="1.0" xmlns="http://www.w3.org/2000/svg"
 width="500.000000pt" height="500.000000pt" viewBox="0 0 500.000000 500.000000"
 preserveAspectRatio="xMidYMid meet">
<metadata>
Created by potrace 1.14, written by Peter Selinger 2001-2017
</metadata>
<g transform="translate(0.000000,500.000000) scale(0.100000,-0.100000)"
fill="#000000" stroke="none">
<path d="M3020 3518 c-470 -177 -857 -323 -858 -324 -4 -3 126 -355 138 -375
6 -9 227 69 874 312 476 178 865 329 866 334 0 27 -139 370 -151 372 -8 1
-399 -143 -869 -319z"/>
<path d="M1265 3663 c15 -40 143 -387 246 -668 60 -165 234 -640 387 -1055
l277 -755 248 -5 c217 -4 247 -3 243 10 -2 8 -211 571 -464 1250 l-459 1235
-243 3 c-228 2 -242 1 -235 -15z"/>
<path d="M1020 3049 c0 -6 -178 -425 -395 -933 -217 -507 -395 -926 -395 -931
0 -6 94 -8 251 -5 l252 5 266 650 c146 358 269 655 273 661 4 5 -43 125 -103
265 -60 140 -112 264 -115 277 -6 22 -34 32 -34 11z"/>
<path d="M3083 2662 c-348 -130 -632 -241 -633 -246 0 -21 135 -369 145 -373
10 -3 1262 461 1274 473 7 6 -134 377 -145 380 -5 2 -293 -104 -641 -234z"/>
<path d="M3615 1895 c-473 -178 -859 -328 -858 -332 6 -25 136 -359 143 -367
5 -5 380 130 872 315 475 178 864 324 866 325 7 3 -143 384 -152 383 -6 0
-398 -146 -871 -324z"/>
<path d="M4345 1435 c-220 -84 -401 -158 -403 -164 -2 -6 8 -11 22 -11 13 0
174 -22 356 -50 332 -50 400 -57 400 -42 0 5 11 89 25 188 28 204 30 234 13
233 -7 0 -193 -69 -413 -154z"/>
</g>
</svg>
